<mxfile host="app.diagrams.net" modified="2023-05-12T20:53:15.610Z" agent="Mozilla/5.0 (Windows NT 10.0; Win64; x64) AppleWebKit/537.36 (KHTML, like Gecko) Chrome/113.0.0.0 Safari/537.36" version="21.3.0" etag="8l22ijjZq_ObX-mWrxQH" type="github">
  <diagram name="PÃ¡gina-1" id="xPbjufkxnKHApZ2L4duU">
    <mxGraphModel>
      <root>
        <mxCell id="0" />
        <mxCell id="1" parent="0" />
      </root>
    </mxGraphModel>
  </diagram>
</mxfile>
